<?xml version="1.0" standalone="no"?>
<!DOCTYPE svg PUBLIC "-//W3C//DTD SVG 20010904//EN"
 "http://www.w3.org/TR/2001/REC-SVG-20010904/DTD/svg10.dtd">
<svg version="1.0" xmlns="http://www.w3.org/2000/svg"
 width="512.000000pt" height="512.000000pt" viewBox="0 0 512.000000 512.000000"
 preserveAspectRatio="xMidYMid meet">
<metadata>
Created by potrace 1.16, written by Peter Selinger 2001-2019
</metadata>
<g transform="translate(0.000000,512.000000) scale(0.100000,-0.100000)"
fill="#000000" stroke="none">
<path d="M1968 4785 c-2 -3 -191 -73 -419 -155 -228 -83 -440 -160 -472 -172
-32 -11 -64 -30 -72 -42 -13 -18 -15 -256 -15 -1808 l0 -1787 22 -26 c18 -19
42 -29 106 -42 l82 -16 0 -78 0 -79 -47 -1 c-27 -1 -59 -4 -73 -8 -24 -7 -23
-8 15 -19 22 -6 144 -34 270 -61 386 -84 628 -140 637 -149 4 -4 106 2 226 14
119 13 467 46 772 74 741 67 970 90 1000 97 19 4 8 10 -50 22 l-75 17 -3 46
-3 47 72 7 c57 5 78 12 96 30 l23 23 0 1863 c0 1257 -3 1875 -10 1900 -6 21
-19 42 -28 47 -9 5 -154 28 -322 50 -168 23 -417 57 -555 76 -733 101 -1158
148 -1177 130z m101 -518 c-1 -271 -5 -584 -9 -697 -4 -139 -7 23 -8 498 -1
467 1 701 8 697 6 -4 10 -179 9 -498z m451 438 c206 -26 385 -50 398 -55 17
-7 22 -18 22 -45 0 -21 -6 -38 -14 -41 -8 -3 -181 15 -386 40 -204 25 -387 46
-406 46 -29 0 -34 3 -34 24 0 35 17 76 32 76 7 0 182 -20 388 -45z m-480
-1699 c0 -1139 3 -1727 10 -1731 6 -4 10 -137 10 -366 0 -238 -3 -358 -10
-354 -5 3 -10 15 -10 26 0 15 -5 19 -17 15 -10 -3 -74 10 -142 29 -111 31
-575 141 -760 180 -41 8 -80 20 -88 26 -11 10 -13 322 -13 1768 0 966 4 1761
8 1768 7 12 125 56 557 210 210 75 433 151 448 152 4 1 7 -775 7 -1723z m1213
1603 c639 -84 751 -100 763 -110 8 -6 14 -26 14 -44 0 -33 0 -33 -37 -24 -33
7 -321 43 -838 104 -71 9 -140 18 -152 20 -41 9 -42 85 -1 85 11 0 124 -14
251 -31z m-731 -39 c392 -46 406 -48 415 -63 7 -12 4 -1469 -3 -1477 -3 -2 -8
1 -12 7 -10 15 -54 25 -69 15 -6 -4 -13 -28 -16 -52 -2 -25 -4 245 -5 600 -1
376 2 650 7 655 5 6 14 27 19 48 20 73 33 69 -493 128 -99 11 -190 22 -202 24
-63 14 -70 155 -8 155 13 0 179 -18 367 -40z m764 -80 c448 -53 668 -80 689
-86 11 -4 28 -13 38 -22 16 -14 17 -96 17 -1459 0 -1275 -2 -1447 -15 -1473
-9 -17 -17 -30 -18 -31 -1 0 -225 -14 -497 -30 -387 -22 -497 -26 -506 -16 -8
9 -13 434 -18 1563 -3 854 -3 1559 0 1568 8 21 10 21 310 -14z m-1109 -127
c-2 -16 -4 -3 -4 27 0 30 2 43 4 28 2 -16 2 -40 0 -55z m173 -73 c56 -7 51 -8
-30 -3 -52 3 -104 9 -115 14 -21 9 22 6 145 -11z m-70 -27 c3 -3 6 -83 8 -179
l3 -174 -28 0 c-44 0 -72 11 -76 29 -3 9 -5 4 -6 -11 -1 -32 -56 -23 459 -69
63 -5 122 -11 130 -12 13 -2 16 27 20 188 l6 190 2 -193 c2 -168 0 -193 -14
-199 -18 -7 -596 37 -606 46 -3 3 -3 69 0 146 l7 140 5 -100 c5 -95 6 -100 28
-101 17 -1 18 -1 3 3 -18 4 -20 14 -20 158 l-1 154 37 -6 c21 -3 40 -8 43 -10z
m203 10 c-13 -2 -33 -2 -45 0 -13 2 -3 4 22 4 25 0 35 -2 23 -4z m-146 -35
c-3 -7 -5 -2 -5 12 0 14 2 19 5 13 2 -7 2 -19 0 -25z m236 25 c-13 -2 -33 -2
-45 0 -13 2 -3 4 22 4 25 0 35 -2 23 -4z m-123 -23 c10 -18 8 -20 -25 -20 -28
0 -35 4 -35 20 0 15 7 20 25 20 14 0 29 -8 35 -20z m213 13 c-13 -2 -33 -2
-45 0 -13 2 -3 4 22 4 25 0 35 -2 23 -4z m87 -193 l1 -190 -41 0 -40 0 0 184
c0 200 -3 192 57 195 21 1 21 -1 23 -189z m-174 172 c6 -4 13 -15 17 -24 5
-15 0 -18 -31 -20 -37 -1 -37 -1 -4 -5 l32 -4 0 -118 0 -118 -31 5 c-28 4 -30
7 -29 41 1 20 1 38 1 41 -1 3 -3 47 -4 98 -2 75 0 95 13 102 18 11 22 12 36 2z
m51 -44 c-3 -8 -6 -5 -6 6 -1 11 2 17 5 13 3 -3 4 -12 1 -19z m-167 -140 l0
-153 -50 3 c-35 3 -50 8 -50 18 0 10 13 14 45 14 l45 0 0 105 c0 58 -4 105 -8
105 -4 0 -6 -41 -4 -91 4 -91 4 -91 -19 -87 -17 2 -23 9 -22 23 1 11 0 14 -3
8 -16 -36 -24 -2 -24 97 l0 110 45 0 45 0 0 -152z m167 -95 c-2 -37 -3 -9 -3
62 0 72 1 102 3 68 2 -34 2 -93 0 -130z m-25 -57 c10 -14 -24 -20 -68 -11 -21
3 -34 12 -34 21 0 12 9 14 48 8 26 -4 50 -12 54 -18z m-308 -102 c43 -6 46 -9
46 -35 0 -32 -9 -34 -107 -23 -43 6 -52 10 -56 30 -2 13 -2 26 1 29 7 7 59 6
116 -1z m234 -46 c3 -27 2 -28 -45 -28 -70 0 -93 9 -93 34 0 20 5 22 68 21 66
0 67 -1 70 -27z m175 -7 c37 -2 14 -19 -28 -19 -25 -1 -45 3 -45 9 0 6 -5 7
-12 3 -7 -4 -8 -3 -4 4 4 7 21 10 39 8 18 -2 40 -4 50 -5z m76 -105 c6 -4 11
-12 11 -18 0 -7 -4 -7 -13 0 -7 6 -85 16 -173 22 -87 6 -208 15 -269 20 -60 5
-123 10 -138 10 -16 0 -26 4 -23 8 5 9 588 -32 605 -42z m-511 -18 c8 -8 12
-65 12 -191 l0 -179 -31 6 c-17 3 -40 6 -50 6 -18 0 -19 11 -19 175 l0 175 28
0 c21 0 24 2 12 10 -12 8 -10 10 11 10 14 0 30 -5 37 -12z m49 -20 c-3 -8 -6
-5 -6 6 -1 11 2 17 5 13 3 -3 4 -12 1 -19z m139 11 c5 -9 -2 -10 -22 -6 l-29
6 30 -14 30 -14 -30 -2 -30 -2 28 -4 27 -4 0 -160 0 -159 -52 -2 c-51 -1 -51
-2 -10 -5 27 -3 42 -9 42 -18 0 -7 3 -20 6 -29 5 -13 -1 -16 -27 -16 -56 0
-62 9 -58 86 2 38 3 124 2 192 -3 120 -2 122 20 123 21 1 21 1 -3 9 -23 7 -23
8 -3 9 12 1 25 6 28 11 8 14 42 13 51 -1z m158 -18 c14 -16 16 -43 15 -202 -1
-101 -5 -193 -10 -204 -7 -15 -8 -10 -5 18 l5 37 -47 1 c-26 0 -41 3 -34 6 9
3 12 47 12 169 0 163 0 164 23 165 l22 2 -22 4 c-13 2 -23 9 -23 14 0 16 46
10 64 -10z m186 -243 l0 -251 -167 7 c-93 3 -232 9 -310 13 l-143 6 0 -30 0
-30 122 -6 c66 -4 178 -7 247 -8 69 0 144 -4 166 -9 40 -8 -453 -3 -507 5
l-28 5 0 -110 0 -110 60 0 60 0 1 78 c1 96 6 84 12 -30 l5 -88 -68 0 c-53 0
-69 4 -74 16 -3 9 -6 95 -6 192 l0 177 113 -6 c61 -4 201 -10 310 -14 l197 -7
0 226 c0 124 2 226 5 226 3 0 5 -113 5 -252z m-50 67 l0 -175 -42 2 -43 1 38
4 c50 6 52 33 2 33 l-35 0 0 88 c0 48 -3 104 -6 124 l-6 37 36 -3 c32 -3 36
-1 36 20 0 21 -5 24 -41 24 -24 0 -38 4 -34 10 3 6 26 10 51 10 l44 0 0 -175z
m-683 -312 c-2 -32 -3 -6 -3 57 0 63 1 89 3 58 2 -32 2 -84 0 -115z m164 125
c0 -10 2 -10 6 0 8 21 23 13 23 -13 0 -21 -5 -25 -30 -25 -25 0 -30 4 -30 25
0 25 29 37 31 13z m306 -35 c-3 -10 -5 -4 -5 12 0 17 2 24 5 18 2 -7 2 -21 0
-30z m63 7 c0 -23 -4 -30 -20 -30 -25 0 -36 25 -20 45 21 25 40 18 40 -15z
m120 -2 c0 -23 -4 -28 -25 -28 -20 0 -25 5 -25 23 0 29 3 33 30 33 15 0 20 -7
20 -28z m27 -15 c-3 -10 -5 -4 -5 12 0 17 2 24 5 18 2 -7 2 -21 0 -30z m44
-426 c-5 -5 -134 -9 -310 -8 l-301 2 0 -60 0 -60 300 -3 c254 -3 302 -5 310
-18 5 -8 10 -79 10 -157 0 -115 -3 -144 -16 -157 -13 -14 -54 -16 -298 -16
-215 0 -286 3 -294 13 -8 9 51 12 291 12 l302 0 3 144 c1 80 -1 148 -6 153 -4
4 -143 10 -308 13 -223 3 -283 2 -234 -6 35 -5 68 -15 72 -22 4 -7 8 -65 8
-129 0 -110 -1 -118 -19 -118 -11 0 -21 6 -24 13 -4 10 -7 10 -18 0 -7 -7 -28
-13 -47 -13 l-33 0 3 124 c2 68 0 122 -4 119 -5 -2 -8 39 -8 93 l0 97 308 -4
307 -4 5 145 5 145 3 -144 c1 -81 -2 -149 -7 -154z m-724 236 c-3 -10 -5 -4
-5 12 0 17 2 24 5 18 2 -7 2 -21 0 -30z m218 7 c4 -6 -7 -10 -27 -9 -31 1 -32
1 -8 9 14 4 26 8 27 9 1 1 5 -3 8 -9z m174 -22 c5 -13 7 -51 4 -85 -3 -41 0
-63 6 -63 14 0 14 -37 0 -45 -20 -13 -127 6 -134 23 -3 9 -1 18 4 20 6 2 11
33 11 72 0 94 3 100 56 100 37 0 46 -4 53 -22z m156 0 c2 -7 6 -55 8 -105 l4
-93 -58 0 c-50 0 -60 3 -70 22 -9 16 -9 23 0 26 7 2 11 32 11 83 l0 79 50 0
c32 0 52 -5 55 -12z m135 -93 l0 -105 -48 0 -49 0 3 103 c2 56 3 103 3 105 1
1 21 2 46 2 l45 0 0 -105z m-470 66 c0 -15 -7 -19 -30 -19 -22 1 -30 6 -30 20
0 13 7 18 30 18 23 0 30 -5 30 -19z m10 -41 c0 -5 -15 -10 -32 -9 -31 1 -32 1
-8 9 35 11 40 11 40 0z m-10 -33 c0 -11 -39 -42 -45 -35 -1 2 -6 13 -9 26 -7
19 -4 22 23 22 18 0 31 -5 31 -13z m-213 -209 c-2 -18 -4 -4 -4 32 0 36 2 50
4 33 2 -18 2 -48 0 -65z m393 -203 l0 -125 -56 0 -57 0 6 44 c4 25 9 81 13
125 l7 81 43 0 44 0 0 -125z m144 109 c13 -5 16 -25 16 -120 l0 -114 -52 0
-53 0 1 98 c3 155 0 142 38 142 19 0 41 -3 50 -6z m146 -114 l0 -120 -45 0
-45 0 0 120 0 120 45 0 45 0 0 -120z m-683 -933 c-1 -138 -2 -25 -2 253 0 278
1 391 2 252 2 -138 2 -366 0 -505z m432 654 c7 -5 11 -22 9 -42 l-3 -34 -82
-3 -83 -3 0 40 c0 22 5 41 13 44 20 8 132 6 146 -2z m249 -33 l3 -38 -95 0
-96 0 0 40 0 41 93 -3 92 -3 3 -37z m-438 -8 l0 -41 -67 3 -68 3 -3 38 -3 37
70 0 71 0 0 -40z m619 -134 c21 -22 22 -35 32 -301 6 -153 8 -293 5 -311 l-7
-32 -127 -6 c-70 -4 -208 -11 -306 -16 -99 -6 -199 -10 -223 -10 l-43 0 0 84
c0 60 4 89 14 99 17 16 95 23 375 33 160 6 186 9 202 25 11 11 19 30 19 44 l0
25 -127 -6 c-71 -3 -212 -9 -315 -12 -160 -6 -190 -10 -205 -25 -15 -14 -19
-42 -23 -150 l-5 -132 -60 -1 c-33 -1 -44 0 -25 3 86 9 80 -2 80 143 0 167 -2
164 141 173 57 4 209 10 337 13 162 5 238 11 250 20 15 11 17 31 17 157 0 129
-2 147 -19 166 -19 21 -25 21 -370 21 -193 0 -355 1 -361 2 -11 3 339 12 576
16 141 2 146 1 168 -22z m-181 -173 l3 -121 -83 -6 c-185 -12 -441 -15 -459
-5 -17 9 -19 22 -19 118 0 77 4 112 13 119 15 13 126 18 367 18 l175 -1 3
-122z m1279 -455 c-3 -8 -6 -5 -6 6 -1 11 2 17 5 13 3 -3 4 -12 1 -19z m-7
-37 c13 -26 14 -575 0 -601 -7 -14 -26 -20 -72 -25 -136 -13 -880 -75 -903
-75 l-25 0 0 334 0 334 163 7 c89 4 286 15 437 25 381 24 387 24 400 1z
m-1020 -374 l0 -334 -112 -7 c-108 -6 -612 -50 -710 -61 -80 -9 -78 -18 -78
325 0 305 4 340 39 356 15 7 659 49 799 53 l62 1 0 -333z m-1623 -269 c81 -17
142 -33 135 -36 -12 -4 -292 55 -301 63 -9 10 22 5 166 -27z m128 -152 c335
-70 407 -87 402 -93 -3 -2 -90 14 -194 36 -103 22 -244 51 -313 65 -135 28
-194 44 -170 45 9 1 132 -23 275 -53z m2355 36 c0 -5 -60 -14 -132 -21 -73 -6
-158 -14 -188 -18 -30 -3 -52 -2 -48 2 4 4 85 15 180 25 95 10 176 18 181 19
4 0 7 -3 7 -7z m-1435 -81 c-6 -5 -73 -14 -150 -20 -77 -6 -167 -14 -200 -18
-33 -3 -57 -2 -53 2 5 5 95 16 200 25 106 10 197 18 203 19 6 1 6 -2 0 -8z"/>
<path d="M1651 3651 c-67 -16 -127 -34 -132 -42 -25 -39 -29 -105 -27 -454 l2
-370 6 390 c7 410 9 430 53 440 107 24 215 45 232 45 27 0 52 -26 58 -60 4
-24 4 -24 6 3 1 30 -37 78 -61 76 -7 0 -69 -13 -137 -28z"/>
<path d="M1648 3600 c-47 -9 -93 -20 -102 -23 -14 -5 -16 -30 -16 -166 0 -88
3 -162 8 -164 6 -4 157 13 240 28 l32 6 -2 167 -3 167 -35 2 c-19 0 -74 -7
-122 -17z m82 -94 c-61 -17 -130 -26 -130 -17 0 9 98 28 145 29 24 0 22 -2
-15 -12z m28 -38 c-7 -19 -38 -22 -38 -4 0 10 9 16 21 16 12 0 19 -5 17 -12z
m-68 -17 c0 -6 -4 -13 -10 -16 -5 -3 -10 1 -10 9 0 9 5 16 10 16 6 0 10 -4 10
-9z m-60 -11 c0 -5 -4 -10 -9 -10 -6 0 -13 5 -16 10 -3 6 1 10 9 10 9 0 16 -4
16 -10z m125 -39 c-8 -13 -35 -15 -35 -2 0 5 8 11 18 13 21 5 26 2 17 -11z
m-65 -11 c0 -5 -7 -10 -15 -10 -8 0 -15 5 -15 10 0 6 7 10 15 10 8 0 15 -4 15
-10z m-60 -10 c0 -5 -7 -10 -15 -10 -8 0 -15 5 -15 10 0 6 7 10 15 10 8 0 15
-4 15 -10z m130 -30 c-20 -13 -53 -13 -45 0 3 6 18 10 33 10 21 0 24 -2 12
-10z m-65 -9 c-14 -13 -113 -25 -100 -13 9 10 41 17 90 21 11 0 15 -3 10 -8z"/>
<path d="M1843 3360 c0 -30 2 -43 4 -27 2 15 2 39 0 55 -2 15 -4 2 -4 -28z"/>
<path d="M1670 3229 c-30 -5 -74 -11 -97 -14 l-43 -6 0 -135 0 -134 39 0 c21
0 53 3 70 6 l31 7 0 88 c0 53 4 89 10 89 6 0 10 -43 10 -110 l0 -110 43 0 c23
0 47 4 53 8 7 4 13 68 17 165 l6 157 -42 -1 c-23 -1 -67 -5 -97 -10z m108
-176 l-3 -88 -37 -3 -38 -3 0 84 c0 46 3 87 7 90 3 4 22 7 40 7 l34 0 -3 -87z"/>
<path d="M1575 2841 l-40 -6 -3 -68 c-3 -79 1 -83 83 -72 l55 6 0 75 0 74 -27
-1 c-16 -1 -46 -5 -68 -8z m-2 -51 c-3 -12 -8 -19 -11 -16 -5 6 5 36 12 36 2
0 2 -9 -1 -20z m55 -17 c-10 -2 -26 -2 -35 0 -10 3 -2 5 17 5 19 0 27 -2 18
-5z"/>
<path d="M1503 2735 c0 -22 2 -30 4 -17 2 12 2 30 0 40 -3 9 -5 -1 -4 -23z"/>
<path d="M1653 2641 c-61 -3 -114 -9 -117 -12 -14 -14 -17 -95 -4 -111 12 -16
25 -17 134 -9 67 5 127 11 133 15 18 11 14 113 -5 120 -9 3 -19 5 -22 4 -4 -1
-57 -4 -119 -7z m110 -28 c-13 -2 -33 -2 -45 0 -13 2 -3 4 22 4 25 0 35 -2 23
-4z m-170 -10 c-7 -2 -21 -2 -30 0 -10 3 -4 5 12 5 17 0 24 -2 18 -5z m60 0
c-7 -2 -21 -2 -30 0 -10 3 -4 5 12 5 17 0 24 -2 18 -5z m5 -40 c-10 -2 -26 -2
-35 0 -10 3 -2 5 17 5 19 0 27 -2 18 -5z m105 0 c-13 -2 -33 -2 -45 0 -13 2
-3 4 22 4 25 0 35 -2 23 -4z m-186 -9 c-3 -3 -12 -4 -19 -1 -8 3 -5 6 6 6 11
1 17 -2 13 -5z"/>
<path d="M1842 2568 c-1 -15 -12 -38 -24 -52 -22 -23 -29 -25 -158 -28 l-135
-3 -12 35 c-11 31 -12 32 -12 9 -1 -14 8 -34 19 -44 18 -16 33 -17 152 -12
121 6 134 8 156 30 18 18 23 32 19 58 -3 28 -4 29 -5 7z"/>
<path d="M2170 4517 c0 -23 5 -26 48 -31 113 -14 127 -13 130 11 4 26 -7 30
-105 39 l-73 7 0 -26z m113 -24 c-7 -2 -19 -2 -25 0 -7 3 -2 5 12 5 14 0 19
-2 13 -5z"/>
<path d="M3114 4366 c-17 -8 -34 -21 -38 -31 -3 -9 -6 -428 -6 -930 l0 -914
23 -25 22 -25 383 -2 c357 -3 384 -2 400 15 16 17 16 18 -5 7 -15 -7 -139 -11
-391 -11 l-369 0 -24 26 -24 25 2 907 c1 499 2 910 2 914 2 20 37 38 74 38 23
0 190 -18 371 -39 297 -36 331 -42 355 -63 l26 -22 -26 27 c-25 28 -30 29
-350 67 -178 21 -340 41 -359 44 -19 3 -49 -1 -66 -8z"/>
<path d="M3127 4322 c-15 -17 -17 -49 -17 -315 l0 -297 33 0 c17 0 166 -9 330
-22 271 -20 297 -24 297 -40 0 -13 -8 -18 -30 -18 -45 0 -560 39 -597 45 l-33
6 0 -224 0 -224 228 -7 c125 -3 278 -9 340 -13 100 -5 112 -8 112 -24 0 -17
-8 -19 -67 -19 -69 0 -364 14 -525 25 l-88 7 0 -342 0 -341 25 -24 24 -25 360
0 c360 0 360 0 381 22 21 23 21 25 19 883 -1 473 -3 855 -6 848 -3 -8 -10 -6
-23 7 -23 23 -16 22 -385 65 -165 20 -314 38 -330 41 -22 4 -35 0 -48 -14z
m97 -128 c26 -10 20 -44 -8 -44 -43 0 -57 10 -45 31 10 20 26 23 53 13z m160
-10 c9 -3 16 -16 16 -29 0 -21 -3 -23 -42 -18 -47 7 -63 20 -46 40 11 14 46
17 72 7z m334 -157 l3 -127 -61 0 -60 0 0 100 0 100 31 0 c17 0 28 4 24 10 -3
6 -2 10 3 10 6 0 12 -7 16 -15 3 -8 10 -15 16 -15 13 0 13 37 0 45 -17 10 -11
27 8 23 15 -3 17 -19 20 -131z m-476 12 l3 -99 -60 6 c-33 4 -60 7 -60 8 -1 0
1 44 3 96 l4 95 53 -3 54 -4 3 -99z m132 85 l46 -7 0 -93 c0 -56 4 -94 10 -94
6 0 10 37 10 90 l0 90 58 0 c31 0 63 -4 69 -8 9 -6 11 -30 6 -90 -5 -65 -9
-82 -22 -83 -9 -1 -5 -5 9 -10 18 -6 9 -7 -30 -4 -30 2 -97 7 -147 11 -51 4
-93 11 -93 16 0 5 -4 7 -8 4 -10 -6 -16 159 -7 174 7 12 33 13 99 4z m-69
-223 c77 -6 207 -16 290 -22 82 -5 152 -12 154 -15 14 -14 -31 -13 -260 6
-328 26 -369 31 -369 41 0 5 10 7 23 5 12 -3 85 -10 162 -15z m-67 -110 c3
-72 3 -73 -20 -67 -13 3 -35 6 -50 6 -27 0 -28 1 -28 58 0 68 12 84 60 80 l35
-3 3 -74z m56 7 c-3 -40 -8 -75 -10 -77 -2 -2 -4 30 -4 72 0 48 4 77 11 77 7
0 8 -24 3 -72z m114 -13 l3 -71 -37 -2 c-52 -4 -64 11 -64 78 0 31 3 60 7 64
4 4 25 6 48 4 l40 -3 3 -70z m125 59 l37 -7 0 -73 c0 -74 0 -74 -25 -69 -14 3
-36 7 -50 10 -24 5 -25 9 -25 75 0 76 -2 74 63 64z m-86 -101 c-2 -21 -4 -6
-4 32 0 39 2 55 4 38 2 -18 2 -50 0 -70z m169 67 c3 0 15 7 28 15 15 10 33 14
50 9 25 -6 26 -9 26 -81 l0 -75 -31 6 c-17 3 -38 6 -46 6 -8 0 -11 5 -8 10 3
6 1 10 -4 10 -6 0 -11 -4 -11 -10 0 -5 -4 -10 -10 -10 -6 0 -10 32 -9 78 1 42
3 69 6 60 2 -10 7 -18 9 -18z m-171 -244 c171 -13 281 -20 288 -18 5 2 7 -3 5
-10 -3 -8 -19 -12 -44 -11 -346 19 -425 27 -439 43 -13 15 -9 16 53 9 37 -4
99 -10 137 -13z m-191 -34 c2 -4 6 -66 7 -137 l2 -130 -59 0 -59 0 -2 138 -2
137 54 0 c30 0 56 -4 59 -8z m36 -69 c0 -25 -2 -44 -4 -42 -9 9 -13 89 -4 89
4 0 8 -21 8 -47z m113 40 c4 -3 30 -6 59 -7 l53 -1 3 -117 c2 -80 -1 -118 -8
-118 -6 0 -8 -5 -5 -11 5 -7 -5 -9 -26 -7 l-34 3 -3 123 c-1 70 -7 122 -12
122 -8 0 -14 -115 -13 -226 0 -6 -22 -10 -51 -10 l-51 1 -3 128 -3 127 44 0
c24 0 47 -3 50 -7z m200 -15 c13 -11 16 -33 17 -113 1 -55 1 -108 1 -117 -1
-14 -10 -18 -41 -18 l-40 0 0 123 c0 68 3 127 7 130 10 11 38 8 56 -5z m120 3
c30 -12 40 -70 31 -183 l-7 -78 -41 0 c-23 0 -46 4 -53 8 -8 5 -13 49 -15 129
l-3 122 30 4 c17 2 31 5 32 5 1 1 13 -2 26 -7z m-457 -343 c-3 -13 -6 -52 -7
-88 l-2 -65 -7 50 c-5 39 -7 43 -8 17 -1 -19 -6 -31 -12 -27 -5 3 -10 2 -10
-4 0 -5 6 -12 13 -14 6 -3 2 -6 -10 -6 -13 -1 -23 4 -23 10 0 5 -4 8 -9 4 -6
-3 -11 19 -13 51 -4 85 -26 83 -31 -3 l-3 -68 -2 83 -2 82 66 0 c64 0 66 -1
60 -22z m142 -65 c3 -54 0 -83 -7 -83 -6 0 -8 6 -6 13 3 6 1 35 -3 62 -7 47
-9 50 -37 50 -20 0 -30 -5 -31 -15 0 -8 -4 -23 -8 -33 -5 -9 -6 -30 -4 -47 2
-16 1 -27 -4 -24 -4 3 -8 41 -8 85 l0 80 52 -3 53 -3 3 -82z m88 10 c-4 -38
-12 -70 -18 -72 -6 -2 -5 -7 3 -12 10 -6 8 -9 -8 -9 -22 0 -23 4 -23 68 0 40
-5 73 -12 80 -9 9 -3 12 26 12 l39 0 -7 -67z m122 -18 l3 -81 -46 0 -45 -1 0
68 c0 37 -3 75 -6 84 -6 14 0 16 42 13 l49 -3 3 -80z m131 23 c-2 -87 -9 -103
-52 -106 l-37 -3 0 49 c0 27 -3 64 -6 81 l-6 31 51 0 51 0 -1 -52z m-369 -43
c0 -8 -4 -15 -9 -15 -13 0 -22 16 -14 24 11 11 23 6 23 -9z m-40 -9 c0 -8 -4
-18 -10 -21 -5 -3 -10 3 -10 14 0 12 5 21 10 21 6 0 10 -6 10 -14z m408 -72
c40 -6 57 -27 30 -36 -16 -5 -500 9 -585 18 -48 4 -63 9 -63 21 0 14 30 15
288 9 158 -4 306 -9 330 -12z m-437 -122 c-91 -1 -168 1 -172 5 -5 5 69 6 164
3 l172 -5 -164 -3z m382 -9 c-34 -2 -93 -2 -130 0 -37 2 -9 3 62 3 72 0 102
-1 68 -3z m-351 -85 c9 -7 18 -30 21 -51 3 -21 15 -57 26 -80 10 -23 21 -51
24 -62 3 -11 8 -30 12 -42 6 -20 3 -23 -26 -23 -27 0 -30 2 -19 15 17 20 8 99
-14 120 -9 9 -19 28 -22 41 -8 32 -40 29 -36 -3 3 -20 -1 -22 -52 -22 -39 0
-56 5 -60 15 -3 8 -19 20 -36 25 -32 12 -41 44 -18 67 16 16 179 16 200 0z
m226 -1 c15 -17 62 -194 62 -229 l0 -28 -85 0 -85 0 0 33 c0 17 -3 42 -6 55
-6 21 -4 22 70 22 42 0 76 4 76 9 0 21 -31 30 -109 33 l-83 3 -19 50 c-10 28
-19 53 -19 58 0 13 187 8 198 -6z m159 -5 c14 -9 43 -74 43 -97 0 -12 -13 -15
-64 -15 l-63 0 -20 53 c-12 28 -19 55 -16 60 6 9 104 9 120 -1z m-404 -142
l47 0 0 -45 c0 -53 -16 -65 -89 -65 -76 0 -81 4 -81 67 l0 56 38 -7 c20 -3 58
-6 85 -6z m483 -45 c11 -59 3 -65 -76 -65 -70 0 -70 0 -70 28 0 15 -3 37 -6
50 -6 21 -4 22 69 22 l76 0 7 -35z m-646 5 c0 -5 -4 -10 -10 -10 -5 0 -10 5
-10 10 0 6 5 10 10 10 6 0 10 -4 10 -10z"/>
<path d="M3648 3933 c7 -3 16 -2 19 1 4 3 -2 6 -13 5 -11 0 -14 -3 -6 -6z"/>
<path d="M3297 4033 c-4 -3 -7 -21 -7 -39 0 -27 3 -32 17 -27 10 4 12 8 5 11
-7 2 -9 15 -5 33 5 29 3 35 -10 22z"/>
<path d="M3358 3943 c7 -3 16 -2 19 1 4 3 -2 6 -13 5 -11 0 -14 -3 -6 -6z"/>
<path d="M3530 3720 c-9 -6 -10 -10 -3 -10 6 0 15 5 18 10 8 12 4 12 -15 0z"/>
<path d="M3182 3332 c4 -19 29 -23 35 -6 2 6 -6 14 -17 17 -16 4 -20 1 -18
-11z"/>
<path d="M3573 3023 c-18 -7 -16 -23 2 -23 8 0 15 7 15 15 0 8 -1 15 -2 14 -2
0 -9 -3 -15 -6z"/>
<path d="M3670 3043 c0 -10 32 -43 42 -43 3 0 8 9 11 19 3 14 1 18 -9 14 -8
-3 -21 0 -29 7 -8 7 -15 8 -15 3z"/>
<path d="M3875 2306 c-34 -34 -34 -88 0 -122 15 -15 32 -23 41 -20 9 3 20 6
25 6 4 0 16 14 25 31 41 79 -32 164 -91 105z m56 -16 c36 -20 19 -90 -22 -90
-28 0 -41 64 -17 88 15 15 15 15 39 2z"/>
<path d="M3062 2143 l3 -78 58 -3 57 -3 0 81 0 80 -60 0 -61 0 3 -77z m76 0
c3 -30 1 -33 -22 -33 -23 0 -26 4 -26 36 0 31 3 35 23 32 17 -2 23 -11 25 -35z"/>
<path d="M3455 2141 c-88 -6 -90 -6 -112 -40 -22 -33 -23 -42 -23 -232 0 -124
4 -207 11 -222 19 -43 43 -46 250 -37 258 10 239 -12 239 276 0 215 0 215 -25
239 -23 24 -29 25 -137 23 -62 -1 -153 -4 -203 -7z m-47 -63 c7 -7 12 -23 12
-36 l0 -24 154 7 153 7 7 -32 c9 -46 7 -293 -2 -308 -6 -9 -53 -14 -155 -19
l-147 -6 0 46 0 45 98 7 c85 6 100 10 125 33 26 25 27 30 27 119 l0 93 -118 0
c-78 0 -122 -4 -130 -12 -8 -8 -12 -59 -12 -162 0 -162 -4 -192 -26 -200 -25
-9 -44 5 -55 43 -16 53 -8 373 10 394 16 20 42 22 59 5z m57 -268 c-3 -5 -13
-10 -21 -10 -8 0 -14 5 -14 10 0 6 9 10 21 10 11 0 17 -4 14 -10z"/>
<path d="M3087 1874 c-12 -12 -8 -129 5 -142 16 -16 80 -15 102 1 14 10 16 25
14 77 l-3 65 -55 3 c-31 2 -59 0 -63 -4z m101 -66 l-3 -53 -35 0 c-33 0 -35 2
-38 39 -5 55 2 66 43 66 l36 0 -3 -52z"/>
<path d="M2698 3928 c9 -9 15 -9 24 0 9 9 7 12 -12 12 -19 0 -21 -3 -12 -12z"/>
<path d="M2558 4203 c7 -3 16 -2 19 1 4 3 -2 6 -13 5 -11 0 -14 -3 -6 -6z"/>
<path d="M2370 3295 c0 -8 5 -15 10 -15 6 0 10 7 10 15 0 8 -4 15 -10 15 -5 0
-10 -7 -10 -15z"/>
<path d="M2370 3215 c0 -9 10 -15 26 -15 31 0 28 22 -4 27 -14 2 -22 -2 -22
-12z"/>
<path d="M2580 3300 c0 -5 7 -10 15 -10 8 0 15 5 15 10 0 6 -7 10 -15 10 -8 0
-15 -4 -15 -10z"/>
<path d="M2568 3263 c7 -3 16 -2 19 1 4 3 -2 6 -13 5 -11 0 -14 -3 -6 -6z"/>
<path d="M2218 2392 c12 -8 72 -4 72 4 0 2 -19 4 -42 4 -26 0 -38 -4 -30 -8z"/>
<path d="M2380 2840 c-11 -7 -3 -10 28 -10 26 0 41 4 37 10 -8 13 -45 13 -65
0z"/>
<path d="M2370 2358 c0 -4 18 -8 40 -8 22 0 40 3 40 8 0 4 -18 7 -40 8 -22 0
-40 -3 -40 -8z"/>
<path d="M2695 2360 c-18 -8 -17 -9 8 -9 16 -1 26 3 22 9 -3 6 -7 10 -8 9 -1
0 -11 -4 -22 -9z"/>
<path d="M2372 2140 c0 -14 2 -19 5 -12 2 6 2 18 0 25 -3 6 -5 1 -5 -13z"/>
<path d="M2460 2150 c0 -5 -9 -10 -20 -10 -11 0 -20 -5 -20 -10 0 -6 14 -9 30
-8 21 2 30 7 30 20 0 10 -4 18 -10 18 -5 0 -10 -4 -10 -10z"/>
<path d="M2390 2130 c0 -5 5 -10 10 -10 6 0 10 5 10 10 0 6 -4 10 -10 10 -5 0
-10 -4 -10 -10z"/>
<path d="M2260 2126 c0 -2 7 -6 15 -10 8 -3 15 -1 15 4 0 6 -7 10 -15 10 -8 0
-15 -2 -15 -4z"/>
<path d="M3486 1214 c-216 -14 -222 -17 -237 -100 -12 -61 -3 -117 21 -139 18
-16 35 -17 237 -5 120 7 234 18 253 24 45 14 60 46 60 129 0 54 -4 71 -20 87
-23 23 -32 23 -314 4z m284 -49 c17 -20 8 -115 -13 -130 -18 -13 -423 -40
-449 -30 -22 9 -33 67 -21 108 6 23 16 33 38 39 25 6 186 17 396 26 22 1 42
-4 49 -13z"/>
</g>
</svg>